<mxfile host="app.diagrams.net" modified="2023-03-19T07:45:50.783Z" agent="5.0 (Macintosh; Intel Mac OS X 10_15_7) AppleWebKit/537.36 (KHTML, like Gecko) Chrome/111.0.0.0 Safari/537.36" etag="Zy23AerW7mh90fYlXKno" version="21.0.8" type="github">
  <diagram name="페이지-1" id="QtHb9Xgmr13o_T9Ihh2j">
    <mxGraphModel dx="561" dy="294" grid="0" gridSize="10" guides="1" tooltips="1" connect="1" arrows="1" fold="1" page="1" pageScale="1" pageWidth="827" pageHeight="1169" math="0" shadow="0">
      <root>
        <mxCell id="0" />
        <mxCell id="1" parent="0" />
        <mxCell id="vLW2Mf5iX6j4DU3W2vql-1" value="DataBase" style="text;html=1;align=center;verticalAlign=middle;resizable=0;points=[];autosize=1;strokeColor=none;fillColor=none;" vertex="1" parent="1">
          <mxGeometry x="259.41" y="160" width="80" height="30" as="geometry" />
        </mxCell>
        <mxCell id="vLW2Mf5iX6j4DU3W2vql-2" value="Web" style="text;html=1;strokeColor=none;fillColor=none;align=center;verticalAlign=middle;whiteSpace=wrap;rounded=0;" vertex="1" parent="1">
          <mxGeometry x="470" y="160" width="60" height="30" as="geometry" />
        </mxCell>
        <mxCell id="vLW2Mf5iX6j4DU3W2vql-3" value="" style="endArrow=none;html=1;rounded=0;" edge="1" parent="1">
          <mxGeometry width="50" height="50" relative="1" as="geometry">
            <mxPoint x="359.41" y="280" as="sourcePoint" />
            <mxPoint x="359.41" y="160" as="targetPoint" />
          </mxGeometry>
        </mxCell>
        <mxCell id="vLW2Mf5iX6j4DU3W2vql-4" value="" style="endArrow=none;html=1;rounded=0;" edge="1" parent="1">
          <mxGeometry width="50" height="50" relative="1" as="geometry">
            <mxPoint x="440" y="280" as="sourcePoint" />
            <mxPoint x="440" y="160" as="targetPoint" />
          </mxGeometry>
        </mxCell>
        <mxCell id="vLW2Mf5iX6j4DU3W2vql-5" value="data" style="rounded=0;whiteSpace=wrap;html=1;" vertex="1" parent="1">
          <mxGeometry x="259.41" y="200" width="80" height="60" as="geometry" />
        </mxCell>
        <mxCell id="vLW2Mf5iX6j4DU3W2vql-6" value="Display&lt;br&gt;data" style="rounded=0;whiteSpace=wrap;html=1;" vertex="1" parent="1">
          <mxGeometry x="460" y="200" width="80" height="60" as="geometry" />
        </mxCell>
        <mxCell id="vLW2Mf5iX6j4DU3W2vql-7" value="" style="endArrow=classic;html=1;rounded=0;exitX=1;exitY=0.5;exitDx=0;exitDy=0;entryX=0;entryY=0.5;entryDx=0;entryDy=0;" edge="1" parent="1" source="vLW2Mf5iX6j4DU3W2vql-5" target="vLW2Mf5iX6j4DU3W2vql-6">
          <mxGeometry width="50" height="50" relative="1" as="geometry">
            <mxPoint x="340" y="240" as="sourcePoint" />
            <mxPoint x="460" y="240" as="targetPoint" />
            <Array as="points" />
          </mxGeometry>
        </mxCell>
        <mxCell id="vLW2Mf5iX6j4DU3W2vql-8" value="HTTP GET" style="text;html=1;strokeColor=none;fillColor=none;align=center;verticalAlign=middle;whiteSpace=wrap;rounded=0;" vertex="1" parent="1">
          <mxGeometry x="360" y="200" width="80" height="30" as="geometry" />
        </mxCell>
      </root>
    </mxGraphModel>
  </diagram>
</mxfile>
